<?xml version="1.0" encoding="iso-8859-1"?>
<!-- Uploaded to: SVG Repo, www.svgrepo.com, Generator: SVG Repo Mixer Tools -->
<!DOCTYPE svg PUBLIC "-//W3C//DTD SVG 1.1//EN" "http://www.w3.org/Graphics/SVG/1.1/DTD/svg11.dtd">
<svg version="1.1" id="Capa_1" xmlns="http://www.w3.org/2000/svg" xmlns:xlink="http://www.w3.org/1999/xlink" 
	 width="800px" height="800px" viewBox="0 0 299.098 299.098"
	 xml:space="preserve">
<g>
	<g>
		<polygon style="fill:#030303;" points="41.227,272.932 41.227,284.643 76.358,284.643 76.358,272.932 64.647,272.932 
			64.647,129.29 76.358,129.29 76.358,117.58 41.227,117.58 41.227,129.29 52.938,129.29 52.938,272.932 		"/>
		<polygon style="fill:#030303;" points="82.213,272.932 82.213,284.643 117.345,284.643 117.345,272.932 105.634,272.932 
			105.634,129.29 117.345,129.29 117.345,117.58 82.213,117.58 82.213,129.29 93.924,129.29 93.924,272.932 		"/>
		<polygon style="fill:#030303;" points="181.753,272.932 181.753,284.643 216.884,284.643 216.884,272.932 205.174,272.932 
			205.174,129.29 216.884,129.29 216.884,117.58 181.753,117.58 181.753,129.29 193.463,129.29 193.463,272.932 		"/>
		<polygon style="fill:#030303;" points="222.739,129.29 234.45,129.29 234.45,272.932 222.739,272.932 222.739,284.643 
			257.871,284.643 257.871,272.932 246.16,272.932 246.16,129.29 257.871,129.29 257.871,117.58 222.739,117.58 		"/>
		<path style="fill:#030303;" d="M248.339,100.014L148.331,0L48.317,100.014H13.9v11.71h229.59l0.726,0.727l0.727-0.727h40.255
			v-11.71H248.339z M64.876,100.014l83.455-83.449l83.448,83.449H64.876z"/>
		<rect x="41.227" y="287.387" style="fill:#030303;" width="216.645" height="11.711"/>
	</g>
</g>
</svg>