<?xml version="1.0" encoding="iso-8859-1"?>
<!-- Uploaded to: SVG Repo, www.svgrepo.com, Generator: SVG Repo Mixer Tools -->
<!DOCTYPE svg PUBLIC "-//W3C//DTD SVG 1.1//EN" "http://www.w3.org/Graphics/SVG/1.1/DTD/svg11.dtd">
<svg fill="#000000" version="1.1" id="Capa_1" xmlns="http://www.w3.org/2000/svg" xmlns:xlink="http://www.w3.org/1999/xlink" 
	 width="800px" height="800px" viewBox="0 0 155.883 155.883"
	 xml:space="preserve">
<g>
	<path d="M155.883,91.223c0-14.389-7.782-27.673-20.302-34.654c-4.993-2.782-10.546-4.354-16.221-4.765
		c-1.072-0.986-2.211-1.909-3.398-2.737c-10.729-7.408-24.539-6.229-34.44,2.125V40.417h-0.061c0.024-0.173,0.122-0.322,0.122-0.505
		c0-0.006,0-0.006,0-0.019l5.76,3.148l-8.05-12.443v-0.113h0.113l12.442,8.05l-3.142-5.757l0,0c3.397,0,6.138-3.653,6.138-3.653
		s-2.74-3.647-6.138-3.647l0,0l3.142-5.754l-12.442,8.044h-0.113V27.66l8.05-12.446l-5.76,3.148c0-0.006,0-0.006,0-0.019
		c0-3.385-3.642-6.128-3.642-6.128S74.3,14.958,74.3,18.344c0,0.013,0,0.013,0,0.019l-5.773-3.148l8.047,12.446v0.107h-0.109
		l-12.446-8.044l3.154,5.754c-0.012,0-0.012,0-0.012,0c-3.398,0-6.135,3.647-6.135,3.647s2.737,3.653,6.135,3.653c0,0,0,0,0.012,0
		l-3.154,5.757l12.446-8.05h0.109v0.113l-8.047,12.443l5.773-3.148c0,0.012,0,0.012,0,0.019c0,0.183,0.1,0.332,0.125,0.505h-0.076
		v10.751c-9.925-8.343-23.711-9.515-34.425-2.095c-1.133,0.779-2.208,1.671-3.23,2.6c-6.089,0.131-12.09,1.803-17.415,4.926
		C7.383,63.607,0,76.87,0,91.223c0,4.122,0.612,8.214,1.739,11.83c1.522,7.283,5.995,14.938,11.792,22.336H4.396v5.517h6.235v7.258
		H4.396v5.505h147.077v-5.505h-6.223v-7.258h6.223v-5.517h-9.742c6.028-7.295,10.644-14.809,12.203-21.958
		C155.225,99.467,155.883,95.356,155.883,91.223z M80.946,62.555c7.529-11.387,20.755-14.624,30.937-7.591
		c8.195,5.7,13.311,16.642,13.311,28.58c0,3.489-0.438,6.911-1.364,10.479c-1.777,10.064-9.292,21.312-17.854,31.365H79.451
		c1.228-2.43,2.753-5.736,2.753-7.472c0-0.408-0.109-0.768-0.231-1.151c0.755,0.572,1.619,1.035,2.594,1.279
		c5.042,1.175,7.728-6.01,6.26-7.611c-2.302-2.266-3.934,3.275-5.492,3.763c-1.511,0.463-2.85,0.22-3.995-0.304V97.896h15.99
		c0.523,1.133,0.768,2.479,0.316,3.989c-0.462,1.559-6.027,3.19-3.763,5.486c1.607,1.479,8.799-1.213,7.611-6.267
		c-0.226-0.962-0.688-1.826-1.261-2.581c0.366,0.14,0.737,0.225,1.146,0.225c2.904,0,10.352-4.269,10.352-4.269
		s-7.447-4.269-10.352-4.269c-0.396,0-0.779,0.104-1.146,0.231c0.573-0.755,1.035-1.632,1.261-2.6
		c1.188-5.066-6.004-7.733-7.611-6.266c-2.253,2.319,3.294,3.934,3.763,5.492c0.451,1.517,0.207,2.85-0.316,3.988h-15.99V75.056
		c1.146-0.524,2.473-0.773,3.995-0.317c1.559,0.487,3.19,6.047,5.492,3.775c1.468-1.602-1.218-8.789-6.26-7.605
		c-0.975,0.25-1.827,0.697-2.594,1.267c0.134-0.375,0.231-0.737,0.231-1.142c0-1.559-1.245-4.433-2.399-6.765L80.946,62.555z
		 M44.003,54.964c3.629-2.512,7.718-3.839,11.822-3.839c7.332,0,14.31,4.165,19.141,11.43l1.111,1.668
		c-1.147,2.345-2.414,5.24-2.414,6.811c0,0.405,0.1,0.773,0.243,1.148c-0.767-0.576-1.641-1.029-2.606-1.273
		c-5.051-1.178-7.733,6.003-6.26,7.605c2.305,2.271,3.934-3.288,5.504-3.775c1.51-0.45,2.85-0.207,3.974,0.317v16.002H58.517
		c-0.524-1.139-0.764-2.472-0.305-3.988c0.463-1.559,6.032-3.179,3.766-5.492c-1.607-1.468-8.792,1.199-7.611,6.266
		c0.241,0.968,0.691,1.827,1.276,2.581c-0.366-0.133-0.74-0.219-1.145-0.219c-2.901,0-10.352,4.263-10.352,4.263
		s7.45,4.269,10.352,4.269c0.399,0,0.779-0.092,1.145-0.231c-0.584,0.773-1.035,1.638-1.276,2.6
		c-1.181,5.054,6.004,7.745,7.611,6.267c2.266-2.309-3.291-3.934-3.766-5.486c-0.459-1.511-0.219-2.856,0.305-3.989H74.52v16.009
		c-1.124,0.523-2.463,0.768-3.974,0.305c-1.571-0.481-3.2-6.041-5.504-3.77c-1.474,1.602,1.208,8.793,6.26,7.605
		c0.965-0.244,1.827-0.694,2.594-1.267c-0.131,0.384-0.231,0.743-0.231,1.151c0,1.723,1.522,5.06,2.73,7.471H49.977
		c-8.619-10.133-16.182-21.452-17.984-31.646c-0.877-3.337-1.315-6.759-1.315-10.211C30.689,71.624,35.792,60.67,44.003,54.964z
		 M8.687,101.27c-1.011-3.258-1.522-6.638-1.522-10.047c0-11.819,6.05-22.722,15.744-28.44c2.253-1.315,4.64-2.305,7.115-2.981
		c-4.128,6.753-6.503,15.053-6.503,23.742c0,4.056,0.524,8.104,1.483,11.733c1.753,9.883,8.077,20.43,15.676,30.123H22.883
		C15.856,117.375,10.3,108.996,8.687,101.27z M147.041,101.556c-1.681,7.599-7.489,15.886-14.821,23.845h-16.964
		c7.562-9.621,13.847-20.082,15.576-29.837c1.011-3.872,1.522-7.916,1.522-12.02c0-8.477-2.266-16.557-6.199-23.225
		c2.034,0.648,4.025,1.435,5.931,2.503c10.261,5.718,16.636,16.605,16.636,28.394C148.722,94.607,148.174,97.969,147.041,101.556z"
		/>
</g>
</svg>