<svg xmlns="http://www.w3.org/2000/svg" width="48" height="48" viewBox="0 0 48 48"><title>d-remove</title><g><path d="M40.971 35.3141L29.6569 24.0001L40.971 12.6861C41.361 12.2951 41.361 11.6621 40.971 11.2721L36.728 7.02907C36.338 6.63907 35.7039 6.63907 35.3139 7.02907L24 18.3431L12.686 7.02907C12.295 6.63907 11.662 6.63907 11.272 7.02907L7.02895 11.2721C6.63895 11.6631 6.63895 12.2961 7.02895 12.6861L18.343 24.0001L7.02895 35.3141C6.63895 35.7041 6.63895 36.3381 7.02895 36.7281L11.272 40.9711C11.663 41.3611 12.295 41.3611 12.686 40.9711L24 29.6571L35.3139 40.9711C35.7039 41.3611 36.338 41.3611 36.728 40.9711L40.971 36.7281C41.361 36.3381 41.361 35.7041 40.971 35.3141Z" fill="url(#nc-ui-7-0_linear_219_30)"></path> <defs> <linearGradient id="nc-ui-7-0_linear_219_30" x1="24" y1="6.73657" x2="24" y2="41.2636" gradientUnits="userSpaceOnUse"> <stop stop-color="#FF666D"></stop> <stop offset="1" stop-color="#E0211F"></stop> </linearGradient> </defs></g></svg>